<svg width="24" height="25" viewBox="0 0 24 25" fill="none" xmlns="http://www.w3.org/2000/svg">
<g clip-path="url(#clip0_2064_2328)">
<path d="M8.25 22.25C9.07843 22.25 9.75 21.5784 9.75 20.75C9.75 19.9216 9.07843 19.25 8.25 19.25C7.42157 19.25 6.75 19.9216 6.75 20.75C6.75 21.5784 7.42157 22.25 8.25 22.25Z" fill="#323232"/>
<path d="M18 22.25C18.8284 22.25 19.5 21.5784 19.5 20.75C19.5 19.9216 18.8284 19.25 18 19.25C17.1716 19.25 16.5 19.9216 16.5 20.75C16.5 21.5784 17.1716 22.25 18 22.25Z" fill="#323232"/>
<path d="M1.5 3.5H3.75L7.19531 15.9012C7.28299 16.2171 7.47171 16.4955 7.73261 16.6939C7.99351 16.8924 8.31222 16.9999 8.64 17H17.9062C18.2342 17.0001 18.5531 16.8927 18.8142 16.6942C19.0753 16.4958 19.2642 16.2172 19.3519 15.9012L21.75 7.25H4.79156" stroke="#323232" stroke-width="1.5" stroke-linecap="round" stroke-linejoin="round"/>
</g>
<defs>
<clipPath id="clip0_2064_2328">
<rect width="24" height="24" fill="white" transform="translate(0 0.5)"/>
</clipPath>
</defs>
</svg>
