<svg width="1920" height="473" viewBox="0 0 1920 473" fill="none" xmlns="http://www.w3.org/2000/svg">
<g clip-path="url(#clip0_139_638)">
<rect width="1920" height="473" fill="url(#paint0_linear_139_638)"/>
<g style="mix-blend-mode:luminosity">
<path d="M1701 241.27C1693.43 181.687 1646.31 134.57 1586.73 127C1646.31 119.43 1693.43 72.3129 1701 12.7297C1708.57 72.3129 1755.69 119.43 1815.27 127C1755.69 134.57 1708.57 181.687 1701 241.27Z" fill="#69110A"/>
<path d="M1701 241.27C1693.43 181.687 1646.31 134.57 1586.73 127C1646.31 119.43 1693.43 72.3129 1701 12.7297C1708.57 72.3129 1755.69 119.43 1815.27 127C1755.69 134.57 1708.57 181.687 1701 241.27Z" stroke="#69110A" stroke-width="2"/>
</g>
<g style="mix-blend-mode:luminosity" opacity="0.32">
<path d="M68 159.295C61.4018 112.526 24.4735 75.5984 -22.2946 69.0002C24.4735 62.4019 61.4018 25.4736 68 -21.2946C74.5983 25.4736 111.526 62.4019 158.295 69.0002C111.526 75.5984 74.5983 112.526 68 159.295Z" fill="#69110A"/>
<path d="M68 159.295C61.4018 112.526 24.4735 75.5984 -22.2946 69.0002C24.4735 62.4019 61.4018 25.4736 68 -21.2946C74.5983 25.4736 111.526 62.4019 158.295 69.0002C111.526 75.5984 74.5983 112.526 68 159.295Z" stroke="#69110A" stroke-width="2"/>
</g>
</g>
<defs>
<linearGradient id="paint0_linear_139_638" x1="1920" y1="236.5" x2="772.644" y2="237.083" gradientUnits="userSpaceOnUse">
<stop stop-color="#1F1F21"/>
<stop offset="1" stop-color="#0A0A0A"/>
</linearGradient>
<clipPath id="clip0_139_638">
<rect width="1920" height="473" fill="white"/>
</clipPath>
</defs>
</svg>
