<svg width="14" height="10" viewBox="0 0 14 10" fill="none" xmlns="http://www.w3.org/2000/svg">
<g clip-path="url(#clip0_4037_2211)">
<rect width="12.5714" height="9.42857" transform="translate(0.714844 0.285645)" fill="#F9F9F9"/>
<path d="M13.2853 0.285645H0.713867V1.07136H13.2853V0.285645Z" fill="#D74B4B"/>
<path d="M13.2853 2.01423H0.713867V2.79994H13.2853V2.01423Z" fill="#D74B4B"/>
<path d="M0.713867 3.74281H13.2853V4.52852H0.713867V3.74281Z" fill="#D74B4B"/>
<path d="M13.2853 5.47139H0.713867V6.2571H13.2853V5.47139Z" fill="#D74B4B"/>
<path d="M0.713867 7.19997H13.2853V7.98568H0.713867V7.19997Z" fill="#D74B4B"/>
<path d="M13.2853 8.92855H0.713867V9.71426H13.2853V8.92855Z" fill="#D74B4B"/>
<path d="M0.713867 0.285645H7.39244V6.2583H0.713867V0.285645Z" fill="#485CC2"/>
<path d="M1.73988 0.814543L1.69601 0.678502L1.65214 0.814543L1.5092 0.81423L1.62502 0.897996L1.58055 1.03384L1.69601 0.949573L1.81147 1.03384L1.767 0.897996L1.88282 0.81423L1.73988 0.814543Z" fill="#F9F9F9"/>
<path d="M1.30315 1.46422L1.34703 1.60026L1.48997 1.59994L1.37414 1.68371L1.41861 1.81956L1.30315 1.73529L1.1877 1.81956L1.23216 1.68371L1.11634 1.59994L1.25928 1.60026L1.30315 1.46422Z" fill="#F9F9F9"/>
<path d="M1.73988 2.5824L1.69601 2.44636L1.65214 2.5824L1.5092 2.58209L1.62502 2.66585L1.58055 2.8017L1.69601 2.71743L1.81147 2.8017L1.767 2.66585L1.88282 2.58209L1.73988 2.5824Z" fill="#F9F9F9"/>
<path d="M1.73988 4.35026L1.69601 4.21422L1.65214 4.35026L1.5092 4.34994L1.62502 4.43371L1.58055 4.56956L1.69601 4.48529L1.81147 4.56956L1.767 4.43371L1.88282 4.34994L1.73988 4.35026Z" fill="#F9F9F9"/>
<path d="M1.34703 3.56454L1.30315 3.4285L1.25928 3.56454L1.11634 3.56423L1.23216 3.648L1.1877 3.78384L1.30315 3.69957L1.41861 3.78384L1.37414 3.648L1.48997 3.56423L1.34703 3.56454Z" fill="#F9F9F9"/>
<path d="M1.30315 4.99993L1.34703 5.13597L1.48997 5.13566L1.37414 5.21942L1.41861 5.35527L1.30315 5.271L1.1877 5.35527L1.23216 5.21942L1.11634 5.13566L1.25928 5.13597L1.30315 4.99993Z" fill="#F9F9F9"/>
<path d="M2.91846 2.5824L2.87458 2.44636L2.83071 2.5824L2.68777 2.58209L2.80359 2.66585L2.75912 2.8017L2.87458 2.71743L2.99004 2.8017L2.94557 2.66585L3.0614 2.58209L2.91846 2.5824Z" fill="#F9F9F9"/>
<path d="M2.87458 4.21422L2.91846 4.35026L3.0614 4.34994L2.94557 4.43371L2.99004 4.56956L2.87458 4.48529L2.75912 4.56956L2.80359 4.43371L2.68777 4.34994L2.83071 4.35026L2.87458 4.21422Z" fill="#F9F9F9"/>
<path d="M2.33145 1.60026L2.28758 1.46422L2.2437 1.60026L2.10076 1.59994L2.21659 1.68371L2.17212 1.81956L2.28758 1.73529L2.40303 1.81956L2.35857 1.68371L2.47439 1.59994L2.33145 1.60026Z" fill="#F9F9F9"/>
<path d="M2.28758 3.4285L2.33145 3.56454L2.47439 3.56423L2.35857 3.648L2.40303 3.78384L2.28758 3.69957L2.17212 3.78384L2.21659 3.648L2.10076 3.56423L2.2437 3.56454L2.28758 3.4285Z" fill="#F9F9F9"/>
<path d="M2.33145 5.13597L2.28758 4.99993L2.2437 5.13597L2.10076 5.13566L2.21659 5.21942L2.17212 5.35527L2.28758 5.271L2.40303 5.35527L2.35857 5.21942L2.47439 5.13566L2.33145 5.13597Z" fill="#F9F9F9"/>
<path d="M4.05315 2.44636L4.09703 2.5824L4.23997 2.58209L4.12414 2.66585L4.16861 2.8017L4.05315 2.71743L3.9377 2.8017L3.98216 2.66585L3.86634 2.58209L4.00928 2.5824L4.05315 2.44636Z" fill="#F9F9F9"/>
<path d="M4.09703 4.35026L4.05315 4.21422L4.00928 4.35026L3.86634 4.34994L3.98216 4.43371L3.9377 4.56956L4.05315 4.48529L4.16861 4.56956L4.12414 4.43371L4.23997 4.34994L4.09703 4.35026Z" fill="#F9F9F9"/>
<path d="M3.46615 1.46422L3.51002 1.60026L3.65296 1.59994L3.53714 1.68371L3.58161 1.81956L3.46615 1.73529L3.35069 1.81956L3.39516 1.68371L3.27933 1.59994L3.42227 1.60026L3.46615 1.46422Z" fill="#F9F9F9"/>
<path d="M3.51002 3.56454L3.46615 3.4285L3.42227 3.56454L3.27933 3.56423L3.39516 3.648L3.35069 3.78384L3.46615 3.69957L3.58161 3.78384L3.53714 3.648L3.65296 3.56423L3.51002 3.56454Z" fill="#F9F9F9"/>
<path d="M3.46615 4.99993L3.51002 5.13597L3.65296 5.13566L3.53714 5.21942L3.58161 5.35527L3.46615 5.271L3.35069 5.35527L3.39516 5.21942L3.27933 5.13566L3.42227 5.13597L3.46615 4.99993Z" fill="#F9F9F9"/>
<path d="M5.2756 2.5824L5.23172 2.44636L5.18785 2.5824L5.04491 2.58209L5.16073 2.66585L5.11627 2.8017L5.23172 2.71743L5.34718 2.8017L5.30271 2.66585L5.41854 2.58209L5.2756 2.5824Z" fill="#F9F9F9"/>
<path d="M5.23172 4.21422L5.2756 4.35026L5.41854 4.34994L5.30271 4.43371L5.34718 4.56956L5.23172 4.48529L5.11627 4.56956L5.16073 4.43371L5.04491 4.34994L5.18785 4.35026L5.23172 4.21422Z" fill="#F9F9F9"/>
<path d="M4.68859 1.60026L4.64472 1.46422L4.60085 1.60026L4.45791 1.59994L4.57373 1.68371L4.52926 1.81956L4.64472 1.73529L4.76018 1.81956L4.71571 1.68371L4.83153 1.59994L4.68859 1.60026Z" fill="#F9F9F9"/>
<path d="M4.64472 3.4285L4.68859 3.56454L4.83153 3.56423L4.71571 3.648L4.76018 3.78384L4.64472 3.69957L4.52926 3.78384L4.57373 3.648L4.45791 3.56423L4.60085 3.56454L4.64472 3.4285Z" fill="#F9F9F9"/>
<path d="M4.68859 5.13597L4.64472 4.99993L4.60085 5.13597L4.45791 5.13566L4.57373 5.21942L4.52926 5.35527L4.64472 5.271L4.76018 5.35527L4.71571 5.21942L4.83153 5.13566L4.68859 5.13597Z" fill="#F9F9F9"/>
<path d="M6.4103 2.44636L6.45417 2.5824L6.59711 2.58209L6.48129 2.66585L6.52575 2.8017L6.4103 2.71743L6.29484 2.8017L6.33931 2.66585L6.22348 2.58209L6.36642 2.5824L6.4103 2.44636Z" fill="#F9F9F9"/>
<path d="M6.45417 4.35026L6.4103 4.21422L6.36642 4.35026L6.22348 4.34994L6.33931 4.43371L6.29484 4.56956L6.4103 4.48529L6.52575 4.56956L6.48129 4.43371L6.59711 4.34994L6.45417 4.35026Z" fill="#F9F9F9"/>
<path d="M5.82329 1.46422L5.86717 1.60026L6.01011 1.59994L5.89428 1.68371L5.93875 1.81956L5.82329 1.73529L5.70783 1.81956L5.7523 1.68371L5.63648 1.59994L5.77942 1.60026L5.82329 1.46422Z" fill="#F9F9F9"/>
<path d="M5.86717 3.56454L5.82329 3.4285L5.77942 3.56454L5.63648 3.56423L5.7523 3.648L5.70783 3.78384L5.82329 3.69957L5.93875 3.78384L5.89428 3.648L6.01011 3.56423L5.86717 3.56454Z" fill="#F9F9F9"/>
<path d="M5.82329 4.99993L5.86717 5.13597L6.01011 5.13566L5.89428 5.21942L5.93875 5.35527L5.82329 5.271L5.70783 5.35527L5.7523 5.21942L5.63648 5.13566L5.77942 5.13597L5.82329 4.99993Z" fill="#F9F9F9"/>
<path d="M2.87458 0.678502L2.91846 0.814543L3.0614 0.81423L2.94557 0.897996L2.99004 1.03384L2.87458 0.949573L2.75912 1.03384L2.80359 0.897996L2.68777 0.81423L2.83071 0.814543L2.87458 0.678502Z" fill="#F9F9F9"/>
<path d="M4.09703 0.814543L4.05315 0.678502L4.00928 0.814543L3.86634 0.81423L3.98216 0.897996L3.9377 1.03384L4.05315 0.949573L4.16861 1.03384L4.12414 0.897996L4.23997 0.81423L4.09703 0.814543Z" fill="#F9F9F9"/>
<path d="M5.23172 0.678502L5.2756 0.814543L5.41854 0.81423L5.30271 0.897996L5.34718 1.03384L5.23172 0.949573L5.11627 1.03384L5.16073 0.897996L5.04491 0.81423L5.18785 0.814543L5.23172 0.678502Z" fill="#F9F9F9"/>
<path d="M6.45417 0.814543L6.4103 0.678502L6.36642 0.814543L6.22348 0.81423L6.33931 0.897996L6.29484 1.03384L6.4103 0.949573L6.52575 1.03384L6.48129 0.897996L6.59711 0.81423L6.45417 0.814543Z" fill="#F9F9F9"/>
</g>
<defs>
<clipPath id="clip0_4037_2211">
<rect width="12.5714" height="9.42857" fill="white" transform="translate(0.714844 0.285645)"/>
</clipPath>
</defs>
</svg>
