<svg width="354" height="50" viewBox="0 0 354 50" fill="none" xmlns="http://www.w3.org/2000/svg">
<g clip-path="url(#clip0_2130_978)">
<path d="M0 48.7225V1.21094H12.9948V48.7225H0Z" fill="white"/>
<path d="M55.0263 11.5501V48.7225H42.0315V11.5501H21.6104V1.21094H75.4804V11.5501H55.0263Z" fill="white"/>
<path d="M116.986 39.7322H90.1578L85.6416 48.7225H71.1396L96.3181 1.21094H110.82L136.004 48.7225H121.502L116.986 39.7322ZM94.8164 30.4666H112.399L103.64 12.9705L94.8164 30.4666Z" fill="white"/>
<path d="M143.886 48.7225V1.21094H156.881V38.3118H192.012V48.7225H143.886Z" fill="white"/>
<path d="M202.408 48.7225V1.21094H215.403V48.7225H202.408Z" fill="white"/>
<path d="M278.416 47.3354C276.711 47.8859 274.946 48.3649 273.127 48.7723C271.307 49.1742 269.383 49.4825 267.367 49.6862C265.344 49.8954 263.179 50 260.872 50C255.967 50 251.456 49.4825 247.335 48.442C243.213 47.4015 239.662 45.8434 236.685 43.7569C233.709 41.6703 231.391 39.0663 229.73 35.9447C228.07 32.8232 227.242 29.1731 227.242 25C227.242 20.8269 228.07 17.1823 229.73 14.0553C231.391 10.9337 233.704 8.32416 236.685 6.24312C239.662 4.15657 243.213 2.59304 247.335 1.55803C251.456 0.523013 255.967 0 260.872 0C263.185 0 265.35 0.104603 267.367 0.313808C269.383 0.523013 271.307 0.825809 273.127 1.23321C274.946 1.6351 276.711 2.11407 278.416 2.67012C280.12 3.22616 281.814 3.84827 283.496 4.53645V16.0868C282.165 15.3711 280.767 14.6664 279.293 13.9617C277.824 13.257 276.196 12.6239 274.426 12.0623C272.655 11.5008 270.699 11.0383 268.578 10.6805C266.457 10.3226 264.062 10.1464 261.398 10.1464C257.309 10.1464 253.917 10.5593 251.22 11.3907C248.524 12.222 246.37 13.3286 244.759 14.7104C243.147 16.0923 242.013 17.6778 241.361 19.4671C240.708 21.2563 240.379 23.1061 240.379 25.0165C240.379 26.2828 240.516 27.538 240.801 28.7657C241.081 29.9989 241.547 31.166 242.205 32.2561C242.857 33.3517 243.712 34.3592 244.764 35.2841C245.816 36.209 247.121 37.0018 248.688 37.6679C250.256 38.3341 252.081 38.8626 254.169 39.2425C256.257 39.6223 258.669 39.815 261.404 39.815C264.138 39.815 266.457 39.6499 268.583 39.314C270.71 38.9782 272.655 38.5378 274.431 37.9817C276.207 37.4312 277.829 36.7981 279.298 36.0989C280.767 35.3942 282.17 34.673 283.502 33.9408V45.4911C281.819 46.1848 280.126 46.8069 278.421 47.3574L278.416 47.3354Z" fill="white"/>
<path d="M334.982 39.7322H308.154L303.638 48.7225H289.136L314.32 1.21094H328.822L354.006 48.7225H339.504L334.987 39.7322H334.982ZM312.812 30.4666H330.395L321.636 12.9705L312.812 30.4666Z" fill="white"/>
</g>
<defs>
<clipPath id="clip0_2130_978">
<rect width="354" height="50" fill="white"/>
</clipPath>
</defs>
</svg>
