<svg width="20" height="21" viewBox="0 0 20 21" fill="none" xmlns="http://www.w3.org/2000/svg">
<path d="M10.0837 15.9583L10.0003 16.0417L9.90866 15.9583C5.95033 12.3667 3.33366 9.99167 3.33366 7.58333C3.33366 5.91667 4.58366 4.66667 6.25033 4.66667C7.53366 4.66667 8.78366 5.5 9.22533 6.63333H10.7753C11.217 5.5 12.467 4.66667 13.7503 4.66667C15.417 4.66667 16.667 5.91667 16.667 7.58333C16.667 9.99167 14.0503 12.3667 10.0837 15.9583ZM13.7503 3C12.3003 3 10.9087 3.675 10.0003 4.73333C9.09199 3.675 7.70033 3 6.25033 3C3.68366 3 1.66699 5.00833 1.66699 7.58333C1.66699 10.725 4.50033 13.3 8.79199 17.1917L10.0003 18.2917L11.2087 17.1917C15.5003 13.3 18.3337 10.725 18.3337 7.58333C18.3337 5.00833 16.317 3 13.7503 3Z" fill="#323232"/>
</svg>
