<svg width="20" height="21" viewBox="0 0 20 21" fill="none" xmlns="http://www.w3.org/2000/svg">
<path d="M13.6337 12.1665C13.7003 11.6165 13.7503 11.0665 13.7503 10.4998C13.7503 9.93317 13.7003 9.38317 13.6337 8.83317H16.4503C16.5837 9.3665 16.667 9.92484 16.667 10.4998C16.667 11.0748 16.5837 11.6332 16.4503 12.1665M12.1587 16.7998C12.6587 15.8748 13.042 14.8748 13.3087 13.8332H15.767C14.9596 15.2234 13.6788 16.2765 12.1587 16.7998ZM11.9503 12.1665H8.05033C7.96699 11.6165 7.91699 11.0665 7.91699 10.4998C7.91699 9.93317 7.96699 9.37484 8.05033 8.83317H11.9503C12.0253 9.37484 12.0837 9.93317 12.0837 10.4998C12.0837 11.0665 12.0253 11.6165 11.9503 12.1665ZM10.0003 17.1332C9.30866 16.1332 8.75033 15.0248 8.40866 13.8332H11.592C11.2503 15.0248 10.692 16.1332 10.0003 17.1332ZM6.66699 7.1665H4.23366C5.03253 5.77237 6.31254 4.71754 7.83366 4.19984C7.33366 5.12484 6.95866 6.12484 6.66699 7.1665ZM4.23366 13.8332H6.66699C6.95866 14.8748 7.33366 15.8748 7.83366 16.7998C6.31555 16.2768 5.03723 15.2233 4.23366 13.8332ZM3.55033 12.1665C3.41699 11.6332 3.33366 11.0748 3.33366 10.4998C3.33366 9.92484 3.41699 9.3665 3.55033 8.83317H6.36699C6.30033 9.38317 6.25033 9.93317 6.25033 10.4998C6.25033 11.0665 6.30033 11.6165 6.36699 12.1665M10.0003 3.85817C10.692 4.85817 11.2503 5.97484 11.592 7.1665H8.40866C8.75033 5.97484 9.30866 4.85817 10.0003 3.85817ZM15.767 7.1665H13.3087C13.0474 6.13451 12.6613 5.13826 12.1587 4.19984C13.692 4.72484 14.967 5.78317 15.767 7.1665ZM10.0003 2.1665C5.39199 2.1665 1.66699 5.9165 1.66699 10.4998C1.66699 12.71 2.54497 14.8296 4.10777 16.3924C4.88159 17.1662 5.80025 17.78 6.8113 18.1988C7.82234 18.6176 8.90598 18.8332 10.0003 18.8332C12.2105 18.8332 14.3301 17.9552 15.8929 16.3924C17.4557 14.8296 18.3337 12.71 18.3337 10.4998C18.3337 9.40549 18.1181 8.32185 17.6993 7.31081C17.2805 6.29976 16.6667 5.3811 15.8929 4.60728C15.1191 3.83346 14.2004 3.21963 13.1894 2.80084C12.1783 2.38205 11.0947 2.1665 10.0003 2.1665Z" fill="#323232"/>
</svg>
