<svg width="354" height="50" viewBox="0 0 354 50" fill="none" xmlns="http://www.w3.org/2000/svg">
<g clip-path="url(#clip0_2064_2354)">
<path d="M0 48.723V1.21143H12.9948V48.723H0Z" fill="#67140F"/>
<path d="M55.0266 11.5506V48.723H42.0318V11.5506H21.6106V1.21143H75.4806V11.5506H55.0266Z" fill="#67140F"/>
<path d="M116.986 39.7327H90.158L85.6419 48.723H71.1399L96.3183 1.21143H110.82L136.004 48.723H121.502L116.986 39.7327ZM94.8166 30.4671H112.399L103.641 12.9709L94.8166 30.4671Z" fill="#67140F"/>
<path d="M143.885 48.723V1.21143H156.88V38.3123H192.012V48.723H143.885Z" fill="#67140F"/>
<path d="M202.409 48.723V1.21143H215.403V48.723H202.409Z" fill="#67140F"/>
<path d="M278.415 47.3354C276.711 47.8859 274.946 48.3649 273.126 48.7723C271.307 49.1742 269.383 49.4825 267.366 49.6862C265.344 49.8954 263.179 50 260.871 50C255.966 50 251.456 49.4825 247.334 48.442C243.213 47.4015 239.661 45.8434 236.685 43.7569C233.709 41.6703 231.391 39.0663 229.73 35.9447C228.069 32.8232 227.242 29.1731 227.242 25C227.242 20.8269 228.069 17.1823 229.73 14.0553C231.391 10.9337 233.703 8.32416 236.685 6.24312C239.661 4.15657 243.213 2.59304 247.334 1.55803C251.456 0.523012 255.966 0 260.871 0C263.184 0 265.349 0.104603 267.366 0.313808C269.383 0.523013 271.307 0.825809 273.126 1.23321C274.946 1.6351 276.711 2.11407 278.415 2.67012C280.12 3.22616 281.813 3.84827 283.496 4.53645V16.0868C282.164 15.3711 280.766 14.6664 279.292 13.9617C277.823 13.257 276.196 12.6239 274.425 12.0623C272.655 11.5008 270.698 11.0383 268.577 10.6805C266.456 10.3226 264.061 10.1464 261.398 10.1464C257.309 10.1464 253.916 10.5593 251.22 11.3907C248.523 12.222 246.369 13.3286 244.758 14.7104C243.147 16.0923 242.012 17.6778 241.36 19.4671C240.708 21.2563 240.379 23.1061 240.379 25.0165C240.379 26.2828 240.516 27.538 240.801 28.7657C241.081 29.9989 241.546 31.166 242.204 32.2561C242.856 33.3517 243.711 34.3592 244.764 35.2841C245.816 36.209 247.12 37.0018 248.688 37.6679C250.255 38.3341 252.08 38.8626 254.169 39.2425C256.257 39.6223 258.668 39.815 261.403 39.815C264.138 39.815 266.456 39.6499 268.583 39.314C270.709 38.9782 272.655 38.5378 274.431 37.9817C276.206 37.4312 277.829 36.7981 279.298 36.0989C280.766 35.3942 282.17 34.673 283.501 33.9408V45.4911C281.819 46.1848 280.125 46.8069 278.421 47.3574L278.415 47.3354Z" fill="#67140F"/>
<path d="M334.982 39.7327H308.154L303.638 48.723H289.136L314.32 1.21143H328.822L354.006 48.723H339.504L334.987 39.7327H334.982ZM312.812 30.4671H330.395L321.636 12.9709L312.812 30.4671Z" fill="#67140F"/>
</g>
<defs>
<clipPath id="clip0_2064_2354">
<rect width="354" height="50" fill="white"/>
</clipPath>
</defs>
</svg>
