<svg width="20" height="21" viewBox="0 0 20 21" fill="none" xmlns="http://www.w3.org/2000/svg">
<path d="M9.99967 3.8335C10.8837 3.8335 11.7316 4.18469 12.3567 4.80981C12.9818 5.43493 13.333 6.28277 13.333 7.16683C13.333 8.05088 12.9818 8.89873 12.3567 9.52385C11.7316 10.149 10.8837 10.5002 9.99967 10.5002C9.11562 10.5002 8.26777 10.149 7.64265 9.52385C7.01753 8.89873 6.66634 8.05088 6.66634 7.16683C6.66634 6.28277 7.01753 5.43493 7.64265 4.80981C8.26777 4.18469 9.11562 3.8335 9.99967 3.8335ZM9.99967 5.50016C9.55765 5.50016 9.13372 5.67576 8.82116 5.98832C8.5086 6.30088 8.33301 6.7248 8.33301 7.16683C8.33301 7.60886 8.5086 8.03278 8.82116 8.34534C9.13372 8.6579 9.55765 8.8335 9.99967 8.8335C10.4417 8.8335 10.8656 8.6579 11.1782 8.34534C11.4907 8.03278 11.6663 7.60886 11.6663 7.16683C11.6663 6.7248 11.4907 6.30088 11.1782 5.98832C10.8656 5.67576 10.4417 5.50016 9.99967 5.50016ZM9.99967 11.3335C12.2247 11.3335 16.6663 12.4418 16.6663 14.6668V17.1668H3.33301V14.6668C3.33301 12.4418 7.77467 11.3335 9.99967 11.3335ZM9.99967 12.9168C7.52467 12.9168 4.91634 14.1335 4.91634 14.6668V15.5835H15.083V14.6668C15.083 14.1335 12.4747 12.9168 9.99967 12.9168Z" fill="#323232"/>
</svg>
