<svg width="14" height="11" viewBox="0 0 14 11" fill="none" xmlns="http://www.w3.org/2000/svg">
<g clip-path="url(#clip0_2064_2195)">
<rect width="14" height="11" fill="white"/>
<path fill-rule="evenodd" clip-rule="evenodd" d="M-1 0V12H15V0H-1Z" fill="#FFB400"/>
<mask id="mask0_2064_2195" style="mask-type:luminance" maskUnits="userSpaceOnUse" x="-1" y="0" width="16" height="12">
<path fill-rule="evenodd" clip-rule="evenodd" d="M-1 0V12H15V0H-1Z" fill="white"/>
</mask>
<g mask="url(#mask0_2064_2195)">
<path fill-rule="evenodd" clip-rule="evenodd" d="M-1 0V3H15V0H-1Z" fill="#C51918"/>
<path fill-rule="evenodd" clip-rule="evenodd" d="M-1 9V12H15V9H-1Z" fill="#C51918"/>
<rect x="1.50391" y="5.13574" width="0.56" height="2.912" fill="#F1F9FF"/>
<path fill-rule="evenodd" clip-rule="evenodd" d="M2.28827 4.63184H1.28027V4.91184H1.44827V5.13584H2.12027V4.91184H2.28827V4.63184Z" fill="#C88A02"/>
<path fill-rule="evenodd" clip-rule="evenodd" d="M2.12027 8.2157H2.28827V8.4957H1.28027V8.2157H1.44827V7.9917H2.12027V8.2157Z" fill="#C88A02"/>
<path fill-rule="evenodd" clip-rule="evenodd" d="M1.78458 4.68778C1.90644 4.68778 1.91883 4.64189 1.99073 4.57335C2.04656 4.52013 2.17658 4.45413 2.17658 4.37978C2.17658 4.20967 2.00107 4.07178 1.78458 4.07178C1.56808 4.07178 1.39258 4.20967 1.39258 4.37978C1.39258 4.46261 1.48212 4.518 1.54982 4.57335C1.62115 4.63167 1.67351 4.68778 1.78458 4.68778Z" fill="#AD1619"/>
<path fill-rule="evenodd" clip-rule="evenodd" d="M1.28027 8.49561H2.28827V8.94361C2.28827 8.94361 2.16227 8.88761 2.03627 8.88761C1.91027 8.88761 1.78427 8.94361 1.78427 8.94361C1.78427 8.94361 1.65827 8.88761 1.53227 8.88761C1.40627 8.88761 1.28027 8.94361 1.28027 8.94361V8.49561Z" fill="#005BBF"/>
<mask id="mask1_2064_2195" style="mask-type:luminance" maskUnits="userSpaceOnUse" x="1" y="8" width="2" height="1">
<path fill-rule="evenodd" clip-rule="evenodd" d="M1.28027 8.49561H2.28827V8.94361C2.28827 8.94361 2.16227 8.88761 2.03627 8.88761C1.91027 8.88761 1.78427 8.94361 1.78427 8.94361C1.78427 8.94361 1.65827 8.88761 1.53227 8.88761C1.40627 8.88761 1.28027 8.94361 1.28027 8.94361V8.49561Z" fill="white"/>
</mask>
<g mask="url(#mask1_2064_2195)">
</g>
<rect x="6.99219" y="5.13574" width="0.56" height="2.912" fill="#F1F9FF"/>
<path fill-rule="evenodd" clip-rule="evenodd" d="M7.77655 4.63184H6.76855V4.91184H6.93655V5.13584H7.60855V4.91184H7.77655V4.63184Z" fill="#C88A02"/>
<path fill-rule="evenodd" clip-rule="evenodd" d="M7.60855 8.2157H7.77655V8.4957H6.76855V8.2157H6.93655V7.9917H7.60855V8.2157Z" fill="#C88A02"/>
<path fill-rule="evenodd" clip-rule="evenodd" d="M7.27286 4.68778C7.39473 4.68778 7.40711 4.64189 7.47901 4.57335C7.53484 4.52013 7.66486 4.45413 7.66486 4.37978C7.66486 4.20967 7.48935 4.07178 7.27286 4.07178C7.05636 4.07178 6.88086 4.20967 6.88086 4.37978C6.88086 4.46261 6.9704 4.518 7.0381 4.57335C7.10943 4.63167 7.16179 4.68778 7.27286 4.68778Z" fill="#AD1619"/>
<path fill-rule="evenodd" clip-rule="evenodd" d="M6.76855 8.49561H7.77655V8.94361C7.77655 8.94361 7.65055 8.88761 7.52455 8.88761C7.39855 8.88761 7.27255 8.94361 7.27255 8.94361C7.27255 8.94361 7.14655 8.88761 7.02055 8.88761C6.89455 8.88761 6.76855 8.94361 6.76855 8.94361V8.49561Z" fill="#005BBF"/>
<mask id="mask2_2064_2195" style="mask-type:luminance" maskUnits="userSpaceOnUse" x="6" y="8" width="2" height="1">
<path fill-rule="evenodd" clip-rule="evenodd" d="M6.76855 8.49561H7.77655V8.94361C7.77655 8.94361 7.65055 8.88761 7.52455 8.88761C7.39855 8.88761 7.27255 8.94361 7.27255 8.94361C7.27255 8.94361 7.14655 8.88761 7.02055 8.88761C6.89455 8.88761 6.76855 8.94361 6.76855 8.94361V8.49561Z" fill="white"/>
</mask>
<g mask="url(#mask2_2064_2195)">
</g>
<path fill-rule="evenodd" clip-rule="evenodd" d="M1.49437 7.83994C1.59533 7.71754 1.65179 7.60618 1.65179 7.48791C1.65179 7.41334 1.6296 7.34893 1.59072 7.29631L1.59729 7.29336C1.59668 7.29363 1.70805 7.24509 1.74682 7.22649C1.8189 7.19194 1.88239 7.15533 1.9443 7.11031C1.98383 7.08156 2.03679 7.05025 2.11752 7.0069L2.21387 6.95568C2.2531 6.93474 2.28232 6.9187 2.30947 6.90295C2.39405 6.85389 2.44995 6.81334 2.4927 6.75912C2.59396 6.63072 2.57294 6.45666 2.43104 6.36005C2.36152 6.31272 2.26771 6.28556 2.13019 6.26418L1.93351 6.23369C1.86771 6.22336 1.80899 6.21372 1.75664 6.20457C2.10092 6.14728 2.59254 6.16834 2.80879 6.27999L3.01432 5.88192C2.57364 5.65439 1.56958 5.67763 1.19451 5.93592C0.919415 6.12538 0.95633 6.41176 1.24256 6.53508C1.36216 6.58661 1.51807 6.6208 1.8066 6.66715C1.75825 6.6952 1.71816 6.72083 1.68081 6.74799C1.64293 6.77553 1.60235 6.79893 1.55312 6.82253C1.52958 6.83382 1.45985 6.86444 1.4279 6.87847L1.41185 6.88554C1.17871 6.99155 1.06556 7.1382 1.09937 7.40293L1.11767 7.54624L1.1505 7.55632L1.49437 7.83994ZM1.20618 7.4696L1.20546 7.47166L1.20601 7.4702L1.20618 7.4696ZM7.35336 7.48791C7.35336 7.60618 7.40982 7.71754 7.51079 7.83994L7.85465 7.55632L7.88748 7.54624L7.90579 7.40293C7.9396 7.1382 7.82645 6.99155 7.59331 6.88554L7.57725 6.87846C7.5453 6.86444 7.47557 6.83382 7.45203 6.82253C7.4028 6.79893 7.36222 6.77553 7.32434 6.74799C7.28699 6.72083 7.24691 6.6952 7.19856 6.66715C7.48708 6.6208 7.64299 6.58661 7.7626 6.53508C8.04882 6.41176 8.08574 6.12538 7.81064 5.93592C7.43557 5.67763 6.43151 5.65439 5.99084 5.88192L6.19636 6.27999C6.41261 6.16834 6.90423 6.14728 7.24852 6.20457C7.19616 6.21372 7.13744 6.22336 7.07164 6.23369L6.87496 6.26418C6.73745 6.28556 6.64363 6.31272 6.57411 6.36005C6.43222 6.45666 6.41119 6.63072 6.51245 6.75912C6.5552 6.81334 6.6111 6.85389 6.69569 6.90295C6.72283 6.9187 6.75205 6.93474 6.79128 6.95568L6.88763 7.0069C6.96836 7.05025 7.02132 7.08156 7.06085 7.11031C7.12276 7.15533 7.18626 7.19194 7.25833 7.22649C7.29711 7.24509 7.40847 7.29363 7.40787 7.29336L7.41444 7.29631C7.37556 7.34893 7.35336 7.41334 7.35336 7.48791Z" fill="#AD1619"/>
<path d="M1.96158 6.19971L2.12688 6.2339V6.48027C1.95083 6.62074 1.50391 6.85749 1.50391 6.85749V6.19971H1.96158Z" fill="#F1F9FF"/>
<path d="M7.15756 6.19971L6.99226 6.2339V6.48027C7.16831 6.62074 7.61523 6.85749 7.61523 6.85749V6.19971H7.15756Z" fill="#F1F9FF"/>
<path fill-rule="evenodd" clip-rule="evenodd" d="M6.38856 3.60289V3.5209C6.10052 3.31418 5.79888 3.21082 5.48364 3.21082C5.18143 3.07708 4.87554 3.02516 4.56595 3.05508C4.56604 3.05412 4.56608 3.05364 4.56608 3.05364C4.10059 3.00809 3.63148 3.21082 3.63148 3.21082C3.15862 3.21082 2.72656 3.5209 2.72656 3.5209V3.60289L3.29138 4.17016C3.29138 4.17016 3.4503 4.71596 4.56318 4.5879C4.56358 4.58877 4.56378 4.58921 4.56378 4.58921C4.56378 4.58921 5.30095 4.56909 5.35275 4.55187C5.37331 4.54503 5.39462 4.53881 5.4164 4.53245C5.56079 4.49029 5.72563 4.44217 5.82374 4.17016L6.38856 3.60289ZM4.56342 3.08441C4.56109 3.11192 4.5574 3.15672 4.55303 3.21399C4.55857 3.17294 4.56229 3.12988 4.56342 3.08441Z" fill="#AD1619"/>
<path fill-rule="evenodd" clip-rule="evenodd" d="M2.76074 3.69899L2.79912 3.6582L3.31196 4.1407C3.40931 4.11453 3.93773 3.97988 4.52797 3.97325V3.97299L4.55042 3.97306L4.57288 3.97299V3.97325C5.22682 3.98059 5.80488 4.14509 5.80488 4.14509C5.80488 4.14509 5.79868 4.19816 5.78364 4.26056C5.79957 4.2279 5.81844 4.1916 5.84025 4.15154L5.84566 4.14454L6.36257 3.6582L6.40095 3.69899L5.8873 4.18225C5.81236 4.32026 5.77462 4.41136 5.77462 4.4492C5.77462 4.50693 5.62442 4.54119 5.33129 4.57639C5.10165 4.60396 4.83063 4.62247 4.60895 4.62523V4.62559L4.58084 4.6255L4.55274 4.62559V4.62523C4.33106 4.62247 4.06004 4.60396 3.8304 4.57639C3.53727 4.54119 3.38707 4.50693 3.38707 4.4492C3.38707 4.44204 3.38572 4.43297 3.38302 4.42205C3.35347 4.3844 3.33268 4.32282 3.31886 4.26728C3.30588 4.2413 3.29106 4.21293 3.27439 4.18225L2.76074 3.69899ZM5.62738 4.45029C5.66662 4.46865 5.69807 4.45034 5.72293 4.41518C5.72078 4.42489 5.71944 4.43367 5.71889 4.44153C5.71561 4.44368 5.71057 4.44627 5.70396 4.44905C5.68552 4.4568 5.65735 4.46507 5.6207 4.47343C5.54867 4.48986 5.44613 4.5062 5.32462 4.52079C5.08732 4.54928 4.80516 4.56802 4.58085 4.5695C4.35653 4.56802 4.07437 4.54928 3.83707 4.52079C3.71556 4.5062 3.61302 4.48986 3.54099 4.47343C3.51027 4.46642 3.48551 4.45948 3.46744 4.45285L3.47347 4.45029C3.5958 4.39305 4.40475 4.33933 4.55042 4.33006C4.6961 4.33933 5.50505 4.39305 5.62738 4.45029ZM5.78165 4.44003L5.7808 4.44101L5.78131 4.4403L5.78165 4.44003Z" fill="#C88A02"/>
<path fill-rule="evenodd" clip-rule="evenodd" d="M4.55667 2.6734C4.64946 2.6734 4.72467 2.59819 4.72467 2.5054C4.72467 2.41262 4.64946 2.3374 4.55667 2.3374C4.46389 2.3374 4.38867 2.41262 4.38867 2.5054C4.38867 2.59819 4.46389 2.6734 4.55667 2.6734Z" fill="#005BBF"/>
<path fill-rule="evenodd" clip-rule="evenodd" d="M4.49441 2.03809H4.61107V2.11179H4.6873V2.22845H4.61107V2.46179H4.6873V2.57845H4.41699V2.46179H4.49441V2.22845H4.41699V2.11179H4.49441V2.03809Z" fill="#C88A02"/>
<rect x="4.47266" y="2.67188" width="0.224" height="0.728" fill="#C88A02"/>
<path d="M2.85449 3.64807L2.54688 3.6365C2.69201 2.7977 3.4068 2.38672 4.54901 2.38672C5.6927 2.38672 6.40496 2.79948 6.53918 3.6414L6.12314 3.68504C6.05782 3.27533 5.37159 2.90456 4.55502 2.90456C3.73697 2.90456 2.92592 3.23524 2.85449 3.64807Z" fill="#C88A02"/>
<path opacity="0.3" fill-rule="evenodd" clip-rule="evenodd" d="M2.73633 4.63184H6.37633V7.90225C6.37633 7.90225 6.10594 8.99984 4.55633 8.99984C3.00672 8.99984 2.73633 7.87331 2.73633 7.87331V4.63184Z" fill="#E1E5E8"/>
<mask id="mask3_2064_2195" style="mask-type:luminance" maskUnits="userSpaceOnUse" x="2" y="4" width="5" height="5">
<path fill-rule="evenodd" clip-rule="evenodd" d="M2.73633 4.63184H6.37633V7.90225C6.37633 7.90225 6.10594 8.99984 4.55633 8.99984C3.00672 8.99984 2.73633 7.87331 2.73633 7.87331V4.63184Z" fill="white"/>
</mask>
<g mask="url(#mask3_2064_2195)">
<rect x="2.73633" y="6.64795" width="1.848" height="2.184" fill="#FFC034"/>
<rect x="2.73633" y="4.57568" width="1.848" height="2.128" fill="#AD1619"/>
<rect x="4.52832" y="6.5918" width="1.848" height="2.128" fill="#AD1619"/>
<rect x="4.52832" y="4.63184" width="1.96" height="2.072" fill="#F1F9FF"/>
<path fill-rule="evenodd" clip-rule="evenodd" d="M5.74157 8.72104C5.74157 8.72104 4.55547 8.8143 4.55547 8.04932C4.55547 8.04932 4.54416 8.72104 3.30566 8.72104V9.32495H5.74157V8.72104Z" fill="#F1F9FF"/>
<path fill-rule="evenodd" clip-rule="evenodd" d="M4.55672 7.09571C4.78868 7.09571 4.97672 6.89513 4.97672 6.64771C4.97672 6.40028 4.78868 6.19971 4.55672 6.19971C4.32476 6.19971 4.13672 6.40028 4.13672 6.64771C4.13672 6.89513 4.32476 7.09571 4.55672 7.09571Z" fill="#005BBF" stroke="#AD1619" stroke-width="0.583333"/>
</g>
<path fill-rule="evenodd" clip-rule="evenodd" d="M3.5 6C3.77614 6 4 5.77614 4 5.5C4 5.22386 3.77614 5 3.5 5C3.22386 5 3 5.22386 3 5.5C3 5.77614 3.22386 6 3.5 6Z" fill="#C88A02"/>
<path fill-rule="evenodd" clip-rule="evenodd" d="M5.5 6C5.77614 6 6 5.77614 6 5.5C6 5.22386 5.77614 5 5.5 5C5.22386 5 5 5.22386 5 5.5C5 5.77614 5.22386 6 5.5 6Z" fill="#C37C9C"/>
<path fill-rule="evenodd" clip-rule="evenodd" d="M5.5 8C5.77614 8 6 7.77614 6 7.5C6 7.22386 5.77614 7 5.5 7C5.22386 7 5 7.22386 5 7.5C5 7.77614 5.22386 8 5.5 8Z" fill="#FFC034"/>
<path d="M3.5 8C3.77614 8 4 7.77614 4 7.5C4 7.22386 3.77614 7 3.5 7C3.22386 7 3 7.22386 3 7.5C3 7.77614 3.22386 8 3.5 8Z" fill="#AD1619"/>
</g>
</g>
<defs>
<clipPath id="clip0_2064_2195">
<rect width="14" height="11" fill="white"/>
</clipPath>
</defs>
</svg>
